<?xml version="1.0" encoding="iso-8859-1"?>
<!-- Generator: Adobe Illustrator 19.0.0, SVG Export Plug-In . SVG Version: 6.00 Build 0)  -->
<svg version="1.1" id="Layer_1" xmlns="http://www.w3.org/2000/svg" xmlns:xlink="http://www.w3.org/1999/xlink" x="0px" y="0px"
	 viewBox="0 0 511.999 511.999" style="enable-background:new 0 0 511.999 511.999;" xml:space="preserve">
<g>
	<g>
		<polygon points="0,147.603 0,364.397 99.621,364.397 99.621,356.334 99.621,333.979 99.621,178.021 99.621,155.665 
			99.621,147.603 		"/>
	</g>
</g>
<g>
	<g>
		<polygon points="130.038,130.444 130.038,147.603 130.038,169.957 130.038,342.042 130.038,364.397 130.038,381.555 
			280.986,506.717 280.986,5.282 		"/>
	</g>
</g>
<g>
	<g>
		<path d="M471.897,125.544c-25.6-37.612-61.273-66.673-103.162-84.045l-11.651,28.097c36.403,15.095,67.41,40.36,89.668,73.062
			c22.786,33.478,34.831,72.671,34.831,113.34c0,40.67-12.044,79.862-34.831,113.34c-22.258,32.701-53.265,57.966-89.668,73.062
			l11.651,28.097c41.888-17.37,77.562-46.433,103.162-84.045c26.235-38.546,40.102-83.656,40.102-130.455
			C512,209.2,498.133,164.089,471.897,125.544z"/>
	</g>
</g>
<g>
	<g>
		<path d="M345.096,98.57l-11.651,28.097c52.475,21.759,86.381,72.526,86.381,129.333c0,56.806-33.906,107.572-86.381,129.333
			l11.651,28.097c63.875-26.488,105.147-88.283,105.147-157.43C450.243,186.852,408.97,125.057,345.096,98.57z"/>
	</g>
</g>
<g>
	<g>
		<path d="M321.458,155.641l-11.651,28.097c29.319,12.158,48.264,40.523,48.264,72.262s-18.945,60.104-48.264,72.262l11.651,28.097
			c40.718-16.886,67.029-56.279,67.029-100.359S362.176,172.526,321.458,155.641z"/>
	</g>
</g>
<g>
</g>
<g>
</g>
<g>
</g>
<g>
</g>
<g>
</g>
<g>
</g>
<g>
</g>
<g>
</g>
<g>
</g>
<g>
</g>
<g>
</g>
<g>
</g>
<g>
</g>
<g>
</g>
<g>
</g>
</svg>
