<?xml version="1.0" encoding="utf-8"?>
<!-- Generator: Adobe Illustrator 23.0.3, SVG Export Plug-In . SVG Version: 6.00 Build 0)  -->
<svg version="1.1" id="_x31_" xmlns="http://www.w3.org/2000/svg" xmlns:xlink="http://www.w3.org/1999/xlink" x="0px" y="0px"
	 viewBox="0 0 18.8 20" style="enable-background:new 0 0 18.8 20;" xml:space="preserve">
<style type="text/css">
	.st0{fill:none;stroke:#000000;stroke-width:0.75;stroke-miterlimit:10;}
</style>
<g>
	
		<ellipse id="_x33_" transform="matrix(0.9981 -6.104632e-02 6.104632e-02 0.9981 -0.2004 0.5653)" class="st0" cx="9.2" cy="3.6" rx="2.7" ry="3.1"/>
	<path id="_x32_" class="st0" d="M4.8,18.5c0,0-0.1-3.4,0.2-4.9c0.2-1.5,1-2.4,0.7-3.3c0,0-0.8-1.2-1.4-1.8S1.2,4.8,1.2,4.8
		s-0.5-0.7,0-1.1c0.5-0.3,1.1-0.3,1.3-0.1c0.2,0.2,2.2,2.3,2.2,2.3S6.7,8,8.7,8s3-0.6,3.3-0.8C12.2,7,13.2,6.4,13.7,6
		c0.5-0.4,2.5-2,2.5-2s0.7-0.7,1.1-0.5c0,0,0.5,0.1,0.7,0.5c0.2,0.4-0.6,1.2-0.6,1.2l-2.2,2.2c0,0-2.3,2.6-2.4,4.3
		c0,0-0.2,1.8,0.2,3.6c0.4,1.8,1,3.1,1,3.1"/>
	<g id="_x31__1_">
		<path id="_x34_" d="M17.1,5.4l-0.5,0.5c0.9,1.4,1.4,3,1.4,4.6c0,2.4-1,4.4-2.5,6l0.5,0.5c1.7-1.7,2.8-4.1,2.8-6.6
			C18.6,8.7,18,6.9,17.1,5.4z"/>
		<path id="_x33__1_" d="M11.5,2.3c1.6,0.4,3,1.2,4,2.3L16,4.1c-1.3-1.4-3.1-2.3-5-2.7L11.5,2.3z"/>
		<path id="_x32__1_" d="M7.1,1.6C5.5,2,4,2.9,2.9,4l0.5,0.5c0.9-0.9,2.1-1.6,3.4-2.1L7.1,1.6z"/>
		<path id="_x31__2_" d="M14.1,17.8c-1.4,0.9-3,1.5-4.7,1.5c-4.7,0-8.6-3.9-8.6-8.6C0.8,9,1.3,7.5,2,6.1L1.5,5.5
			c-0.9,1.5-1.5,3.2-1.5,5c0,5.1,4.1,9.3,9.3,9.3c1.9,0,3.6-0.6,5-1.5L14.1,17.8z"/>
	</g>
</g>
</svg>
