<?xml version="1.0" encoding="utf-8"?>
<!-- Generator: Adobe Illustrator 23.0.3, SVG Export Plug-In . SVG Version: 6.00 Build 0)  -->
<svg version="1.1" id="_x31_" xmlns="http://www.w3.org/2000/svg" xmlns:xlink="http://www.w3.org/1999/xlink" x="0px" y="0px"
	 viewBox="0 0 16 15.2" style="enable-background:new 0 0 16 15.2;" xml:space="preserve">
<style type="text/css">
	.st0{fill:none;stroke:#aef5fe;stroke-width:0.5;stroke-miterlimit:10;}
</style>
<g id="_x31__1_">
	<path id="_x34_" class="st0" d="M2.4,14.8c0,0,2.9-5.9,9.9-5.3"/>
	<path id="_x33_" class="st0" d="M4.3,12.2c0,0-0.8-5.4,5.1-5.5c4.5,0.3,6.1,2.7,6.1,2.7s-2,4.3-7,4.8c-1.6,0.1-3.6-1-3.6-1"/>
	<path id="_x32_" class="st0" d="M2.8,12c0,0-0.1-2.2-0.4-3.2S2,5.2,2.7,3.7"/>
	<path id="_x31__2_" class="st0" d="M2.3,9.3c0,0-2-1-1.8-3.8s2.5-5,2.5-5s4.1,3.7,0.6,7.9"/>
</g>
</svg>
