<?xml version="1.0" encoding="utf-8"?>
<svg version="1.1" id="_x31__2_" xmlns="http://www.w3.org/2000/svg" xmlns:xlink="http://www.w3.org/1999/xlink" x="0px" y="0px"
	 viewBox="0 0 18.2 14.8"  style="enable-background:new 0 0 18.2 14.8;" xml:space="preserve">
<style type="text/css">
	.st0{fill:none;stroke:#aef5fe;stroke-width:0.5;stroke-miterlimit:10;}
</style>
<g  fill="#aef5fe">
	<path id="_x35_" class="st0" d="M11.2,3.8h3.6c0,0,0.4,0,0.9,0.5c0.2,0.2,0.4,0.5,0.7,0.9c0.5,0.7,1.1,1.4,1.1,1.4s0.4,0.4,0.4,1.1
		s0,3.5,0,3.5S18,12,16.8,12c-0.2,0-0.8,0-0.8,0"/>
	<circle id="_x34_" class="st0" cx="4.7" cy="12.4" r="1.9"/>
	<circle id="_x33_" class="st0" cx="14.1" cy="12.4" r="1.9"/>
	<g id="_x32_">
		<circle id="_x33__1_" class="st0" cx="4" cy="4.2" r="3.7"/>
		<polyline id="_x32__1_" class="st0" points="2.7,5.5 4.1,4.4 4.1,1.9 		"/>
		<circle id="_x31__1_" cx="4" cy="4.4" r="0.5"/>
	</g>
	<path id="_x31_" class="st0" d="M17.7,8.1h-4c0,0-0.6-0.1-0.6-0.8s0-1.5,0-1.5s0-0.5,0.7-0.5c0.8,0,2.5,0,2.5,0"/>
	<line id="_x33__2_" class="st0" x1="12.2" y1="12" x2="10" y2="12"/>
	<path id="_x32__2_" class="st0" d="M1.1,6.5v4.8c0,0,0,0.7,0.8,0.7s0.9,0,0.9,0"/>
	<path id="_x31__3_" class="st0" d="M6.6,12h3.5c0,0,0.9,0.1,0.9-0.9S11,3,11,3s0-0.8-0.9-0.8s-2.9,0-2.9,0"/>
</g>
</svg>
