<svg version="1.1" xmlns="http://www.w3.org/2000/svg" xmlns:xlink="http://www.w3.org/1999/xlink" xml:space="preserve">
    <symbol id="leaves" viewBox="0 0 16 15.2">
        <g id="_x31__1_">
            <path id="_x34_" class="st0" d="M2.4,14.8c0,0,2.9-5.9,9.9-5.3"/>
            <path id="_x33_" class="st0" d="M4.3,12.2c0,0-0.8-5.4,5.1-5.5c4.5,0.3,6.1,2.7,6.1,2.7s-2,4.3-7,4.8c-1.6,0.1-3.6-1-3.6-1"/>
            <path id="_x32_" class="st0" d="M2.8,12c0,0-0.1-2.2-0.4-3.2S2,5.2,2.7,3.7"/>
            <path id="_x31__2_" class="st0" d="M2.3,9.3c0,0-2-1-1.8-3.8s2.5-5,2.5-5s4.1,3.7,0.6,7.9"/>
        </g>
    </symbol>
    <symbol id="track" viewBox="0 0 18.2 14.8">
         <g>
        <path id="_x35_" class="st0" d="M11.2,3.8h3.6c0,0,0.4,0,0.9,0.5c0.2,0.2,0.4,0.5,0.7,0.9c0.5,0.7,1.1,1.4,1.1,1.4s0.4,0.4,0.4,1.1
            s0,3.5,0,3.5S18,12,16.8,12c-0.2,0-0.8,0-0.8,0"/>
        <circle id="_x34_" class="st0" cx="4.7" cy="12.4" r="1.9"/>
        <circle id="_x33_" class="st0" cx="14.1" cy="12.4" r="1.9"/>
        <g id="_x32_">
            <circle id="_x33__1_" class="st0" cx="4" cy="4.2" r="3.7"/>
            <polyline id="_x32__1_" class="st0" points="2.7,5.5 4.1,4.4 4.1,1.9 		"/>
            <circle id="_x31__1_" cx="4" cy="4.4" r="0.5"/>
        </g>
        <path id="_x31_" class="st0" d="M17.7,8.1h-4c0,0-0.6-0.1-0.6-0.8s0-1.5,0-1.5s0-0.5,0.7-0.5c0.8,0,2.5,0,2.5,0"/>
        <line id="_x33__2_" class="st0" x1="12.2" y1="12" x2="10" y2="12"/>
        <path id="_x32__2_" class="st0" d="M1.1,6.5v4.8c0,0,0,0.7,0.8,0.7s0.9,0,0.9,0"/>
        <path id="_x31__3_" class="st0" d="M6.6,12h3.5c0,0,0.9,0.1,0.9-0.9S11,3,11,3s0-0.8-0.9-0.8s-2.9,0-2.9,0"/>
        </g>
    </symbol>
    <symbol id="measure" viewBox="0 0 15.2 15.2">
         <g id="_x31__1_">
        <path id="_x35_" class="st0" d="M10.1,3.8c0,0,0.3-3.4-3.8-3.4c-3.2,0-2.5,0-2.5,0S1,0.4,0.4,2.6c0,2,0,5.7,0,6.1S1,11.1,4,11.1"/>
        <path id="_x34_" class="st0" d="M14.8,6.8c0,0,0,4.6,0,6.3s-1.6,1.6-1.6,1.6s-5,0-6.4,0s-1.5-0.8-1.5-0.8s0-1.7,0-3.4
            s1.2-1.6,1.2-1.6s4.7,0,6.2,0S14.8,8.2,14.8,6.8s-1.4-1.7-1.4-1.7s-7.4,0-9.3,0S0.9,3.7,0.9,3.7L0.4,3.2"/>
        <line id="_x33_" class="st0" x1="8.9" y1="10.8" x2="8.9" y2="9"/>
        <line id="_x32_" class="st0" x1="12.6" y1="10.8" x2="12.6" y2="8.9"/>
        <ellipse id="_x31__2_" cx="5.3" cy="2.9" rx="1" ry="0.4"/>
        </g>
    </symbol>
    <symbol id="1" viewBox="0 0 18.8 20">
        <g> 
            <ellipse id="_x33_" transform="matrix(0.9981 -6.104632e-02 6.104632e-02 0.9981 -0.2004 0.5653)" class="st0" cx="9.2" cy="3.6" rx="2.7" ry="3.1"/>
            <path id="_x32_" class="st0" d="M4.8,18.5c0,0-0.1-3.4,0.2-4.9c0.2-1.5,1-2.4,0.7-3.3c0,0-0.8-1.2-1.4-1.8S1.2,4.8,1.2,4.8
                s-0.5-0.7,0-1.1c0.5-0.3,1.1-0.3,1.3-0.1c0.2,0.2,2.2,2.3,2.2,2.3S6.7,8,8.7,8s3-0.6,3.3-0.8C12.2,7,13.2,6.4,13.7,6
                c0.5-0.4,2.5-2,2.5-2s0.7-0.7,1.1-0.5c0,0,0.5,0.1,0.7,0.5c0.2,0.4-0.6,1.2-0.6,1.2l-2.2,2.2c0,0-2.3,2.6-2.4,4.3
                c0,0-0.2,1.8,0.2,3.6c0.4,1.8,1,3.1,1,3.1"/>
            <g id="_x31__1_">
                <path id="_x34_" d="M17.1,5.4l-0.5,0.5c0.9,1.4,1.4,3,1.4,4.6c0,2.4-1,4.4-2.5,6l0.5,0.5c1.7-1.7,2.8-4.1,2.8-6.6
                    C18.6,8.7,18,6.9,17.1,5.4z"/>
                <path id="_x33__1_" d="M11.5,2.3c1.6,0.4,3,1.2,4,2.3L16,4.1c-1.3-1.4-3.1-2.3-5-2.7L11.5,2.3z"/>
                <path id="_x32__1_" d="M7.1,1.6C5.5,2,4,2.9,2.9,4l0.5,0.5c0.9-0.9,2.1-1.6,3.4-2.1L7.1,1.6z"/>
                <path id="_x31__2_" d="M14.1,17.8c-1.4,0.9-3,1.5-4.7,1.5c-4.7,0-8.6-3.9-8.6-8.6C0.8,9,1.3,7.5,2,6.1L1.5,5.5
                    c-0.9,1.5-1.5,3.2-1.5,5c0,5.1,4.1,9.3,9.3,9.3c1.9,0,3.6-0.6,5-1.5L14.1,17.8z"/>
            </g>
        </g>
    </symbol>
    <symbol id="2" viewBox="0 0 20.6 20.8">
        <g id="_x31__1_">
            <circle id="_x34_" class="st0" cx="10.3" cy="10.4" r="9.8"/>
            <path id="_x33_" class="st0" d="M4.1,12.8c0,0,2.4,3.3,6.1,3.3s5.9-3.3,5.9-3.3"/>
            <g id="_x32_">
                <path id="_x33__1_" class="st0" d="M6.9,11.1c0,0-2.6-1.4-2.6-2.7C4.2,7.2,5.7,6.3,6.9,7.8"/>
                <path id="_x32__1_" class="st0" d="M6.5,11.1c0,0,2.6-1.4,2.6-2.7c0.1-1.2-1.4-2.1-2.6-0.7"/>
                <polygon id="_x31__3_" points="6.6,8 6.7,8.1 6.8,8 6.8,7.8 6.6,7.9 		"/>
            </g>
            <g id="_x31__2_">
                <path id="_x33__2_" class="st0" d="M13.7,11.1c0,0-2.6-1.4-2.6-2.7c-0.1-1.2,1.4-2.1,2.6-0.7"/>
                <path id="_x32__2_" class="st0" d="M13.3,11.1c0,0,2.6-1.4,2.6-2.7c0.1-1.2-1.4-2.1-2.6-0.7"/>
                <polygon id="_x31__4_" points="13.4,8 13.5,8.1 13.6,8 13.6,7.8 13.4,7.9 		"/>
            </g>
        </g>
    </symbol>
    <symbol id="3" viewBox="0 0 22.3 18.9">
        <path id="_x31__1_" class="st0" d="M7.3,11.6c-0.3-0.7-0.9-2-1.7-2.7c-1.2-1-2.1-2.4-2.5-3.8c0-0.5,0.3-1,1-1.2c0,0,0.2,1,0.7,1
        S5.6,4.7,6.2,4s0.7-0.8,0.7-0.8s0.5-0.8,0-1.2S5.1,0.7,5.1,0.7S4.5,0.5,4.2,0.5S3.3,0.5,2.8,1C2.2,1.4,1,2.6,1,2.6S0.4,3.4,0.4,4.5
        c0,1.2,0.4,4.8,0.4,4.8s0.5,2.5,1.1,4.1s1.9,3.3,3.1,4.3c0.4,0.4,0.9,0.7,1.1,0.7c0.6,0,1.4-0.6,2.1-0.6s2.1,0.6,3.4,0.6
        s5.3-0.9,6.8-5.8c0,0,3.5-0.8,3.5-4.5s-3.1-4.6-4.4-4.6S13,4.4,13,7.7v0.6c0,0-0.7-0.5-1.8-0.5s-3.4,0.7-3.6,3.7L7.3,11.6z"/>       
    </symbol>
    <symbol id="phone" viewBox="0 0 477.156 477.156">
        <g>
            <path d="M475.009,380.316l-2.375-7.156c-5.625-16.719-24.062-34.156-41-38.75l-62.688-17.125c-17-4.625-41.25,1.594-53.688,14.031
                l-22.688,22.688c-82.453-22.28-147.109-86.938-169.359-169.375L145.9,161.94c12.438-12.438,18.656-36.656,14.031-53.656
                l-17.094-62.719c-4.625-16.969-22.094-35.406-38.781-40.969L96.9,2.19c-16.719-5.563-40.563,0.063-53,12.5L9.962,48.659
                C3.899,54.69,0.024,71.94,0.024,72.003c-1.187,107.75,41.063,211.562,117.281,287.781
                c76.031,76.031,179.454,118.219,286.891,117.313c0.562,0,18.312-3.813,24.375-9.845l33.938-33.938
                C474.946,420.878,480.571,397.035,475.009,380.316z"/>
        </g>
    </symbol>
    <symbol id="vk" viewBox="0 0 36.7 36.7">
        <path class="st0" d="M36.5,26.8c0-0.1-0.1-0.2-0.1-0.2c-0.6-1.1-1.9-2.6-3.7-4.2l0,0l0,0l0,0h0c-0.8-0.8-1.3-1.3-1.5-1.6   
        c-0.4-0.5-0.5-1-0.3-1.5c0.2-0.4,0.7-1.2,1.7-2.5c0.5-0.7,0.9-1.2,1.2-1.6c2.2-2.9,3.2-4.8,2.9-5.6l-0.1-0.2C36.5,9.1,36.3,9,36,8.9
        c-0.3-0.1-0.7-0.1-1.2,0l-5.5,0c-0.1,0-0.2,0-0.4,0c-0.2,0-0.2,0.1-0.2,0.1l-0.1,0l-0.1,0.1c-0.1,0-0.1,0.1-0.2,0.2
        c-0.1,0.1-0.1,0.2-0.2,0.3c-0.6,1.5-1.3,3-2,4.3c-0.5,0.8-0.9,1.5-1.3,2.1c-0.4,0.6-0.7,1-1,1.3c-0.3,0.3-0.5,0.5-0.7,0.7
        c-0.2,0.2-0.4,0.2-0.5,0.2c-0.1,0-0.2-0.1-0.3-0.1c-0.2-0.1-0.3-0.3-0.4-0.5c-0.1-0.2-0.2-0.4-0.2-0.7c0-0.3-0.1-0.6-0.1-0.8
        c0-0.2,0-0.5,0-0.9c0-0.4,0-0.7,0-0.8c0-0.5,0-1,0-1.6c0-0.6,0-1,0-1.3c0-0.3,0-0.7,0-1.1c0-0.4,0-0.7-0.1-0.9
        c0-0.2-0.1-0.4-0.2-0.6c-0.1-0.2-0.2-0.4-0.4-0.5c-0.2-0.1-0.4-0.2-0.6-0.3c-0.7-0.2-1.5-0.2-2.6-0.2c-2.4,0-3.9,0.1-4.6,0.5
        c-0.3,0.1-0.5,0.3-0.7,0.6c-0.2,0.3-0.3,0.4-0.1,0.5c0.8,0.1,1.3,0.4,1.6,0.8l0.1,0.2c0.1,0.2,0.2,0.5,0.3,0.9
        c0.1,0.4,0.1,0.9,0.2,1.4c0.1,0.9,0.1,1.7,0,2.4c-0.1,0.7-0.1,1.2-0.2,1.5c-0.1,0.4-0.1,0.7-0.3,0.9c-0.1,0.2-0.2,0.4-0.2,0.4
        c0,0.1-0.1,0.1-0.1,0.1c-0.2,0.1-0.3,0.1-0.5,0.1c-0.2,0-0.4-0.1-0.6-0.3c-0.3-0.2-0.5-0.4-0.8-0.7c-0.3-0.3-0.6-0.7-0.9-1.3
        c-0.3-0.6-0.7-1.2-1.1-2l-0.3-0.6c-0.2-0.4-0.5-0.9-0.8-1.6c-0.3-0.7-0.6-1.3-0.9-2C7.7,9.5,7.5,9.3,7.3,9.1L7.2,9.1
        C7.1,9,7,9,6.9,8.9C6.8,8.9,6.6,8.8,6.5,8.8l-5.2,0C0.7,8.8,0.3,9,0.1,9.2L0.1,9.3C0,9.4,0,9.5,0,9.6c0,0.1,0,0.3,0.1,0.5
        c0.8,1.8,1.6,3.5,2.5,5.2c0.9,1.7,1.7,3,2.3,4c0.7,1,1.3,2,2,2.9c0.7,0.9,1.1,1.5,1.4,1.7c0.2,0.3,0.4,0.4,0.5,0.6L9.3,25
        c0.3,0.3,0.8,0.7,1.3,1.1c0.6,0.4,1.2,0.8,2,1.3c0.7,0.4,1.6,0.8,2.5,1c1,0.3,1.9,0.4,2.8,0.3h2.2c0.4,0,0.8-0.2,1-0.4l0.1-0.1
        c0.1-0.1,0.1-0.2,0.1-0.4c0-0.2,0.1-0.3,0.1-0.5c0-0.5,0-1,0.1-1.5c0.1-0.4,0.2-0.8,0.3-1c0.1-0.2,0.3-0.4,0.4-0.6
        c0.2-0.2,0.3-0.2,0.3-0.3c0.1,0,0.1-0.1,0.2-0.1c0.3-0.1,0.7,0,1.1,0.3c0.4,0.3,0.8,0.7,1.2,1.1c0.4,0.4,0.8,0.9,1.3,1.5
        c0.5,0.5,1,1,1.3,1.2l0.4,0.2c0.3,0.2,0.6,0.3,1,0.4c0.4,0.1,0.8,0.2,1.1,0.1l4.9-0.1c0.5,0,0.9-0.1,1.1-0.2
        c0.3-0.2,0.4-0.3,0.5-0.5c0.1-0.2,0.1-0.4,0-0.7C36.6,27.1,36.6,26.9,36.5,26.8L36.5,26.8z M36.5,26.8"/>
    </symbol>
    <symbol id="fb" viewBox="0 0 36.7 36.7">
        <path class="st0" d="M36.7,34.7c0,1.1-0.9,2-2,2h-9.4V22.5h4.8l0.7-5.5h-5.5v-3.5c0-1.6,0.4-2.7,2.7-2.7l2.9,0v-5
        c-0.5-0.1-2.2-0.2-4.3-0.2c-4.2,0-7.1,2.6-7.1,7.3V17h-4.8v5.5h4.8v14.2H2c-1.1,0-2-0.9-2-2V2c0-1.1,0.9-2,2-2h32.7c1.1,0,2,0.9,2,2
        V34.7z"/>
    </symbol>
    <symbol id="inst" viewBox="0 0 36.7 36.7">
        <path class="st0" d="M32.3,0H4.4C2,0,0,1.9,0,4.3v28.1c0,2.4,2,4.3,4.4,4.3h27.9c2.4,0,4.4-1.9,4.4-4.3V4.3C36.7,1.9,34.7,0,32.3,0
        M26.4,5.7c0-0.6,0.5-1.1,1.1-1.1H31c0.6,0,1.1,0.5,1.1,1.1v3.4c0,0.6-0.5,1.1-1.1,1.1h-3.4c-0.6,0-1.1-0.5-1.1-1.1L26.4,5.7
        L26.4,5.7z M18.4,11.3c3.9,0,7.1,3.1,7.1,7s-3.2,7-7.1,7s-7.1-3.1-7.1-7C11.3,14.5,14.5,11.3,18.4,11.3 M33.2,32.1
        c0,0.6-0.5,1.1-1.1,1.1H4.6c-0.6,0-1.1-0.5-1.1-1.1V14.9H8c-0.6,0.9-0.8,2.5-0.8,3.5c0,6.1,5,11.1,11.2,11.1s11.2-5,11.2-11.1
        c0-1-0.1-2.6-0.9-3.5h4.6L33.2,32.1L33.2,32.1z"/>
    </symbol>
    <symbol id="tw" viewBox="0 0 36.7 36.7">
        <path class="st0" d="M35.7,3.7c-1.5,0.9-3.1,1.5-4.8,1.9c-1.4-1.5-3.3-2.4-5.5-2.4c-4.2,0-7.5,3.5-7.5,7.7c0,0.6,0.1,1.2,0.2,1.8
        C11.8,12.3,6.3,9.2,2.6,4.5c-0.6,1.1-1,2.5-1,3.9c0,2.7,1.3,5,3.4,6.4c-1.2,0-2.4-0.4-3.4-1V14c0,3.7,2.6,6.9,6,7.6
        c-0.6,0.2-1.3,0.3-2,0.3c-0.5,0-1,0-1.4-0.1c1,3.1,3.7,5.3,7,5.4c-2.6,2.1-5.8,3.3-9.4,3.3c-0.6,0-1.2,0-1.8-0.1
        c3.3,2.2,7.3,3.5,11.5,3.5c13.9,0,21.4-11.8,21.4-22c0-0.3,0-0.7,0-1c1.5-1.1,2.8-2.4,3.8-4c-1.3,0.6-2.8,1-4.3,1.2
        C33.9,7,35.1,5.5,35.7,3.7"/>
    </symbol>
</svg>